{"title":"Popstar Never Stop Never Stopping 2016 1080p WEB-DL DD5.1 x265","uid":15640918,"size":1083232319,"categoryP":"video","categoryS":"hd___movies","magnet":"?xt=urn:btih:ac0eb2f1d75969c197a6748c664cf7600b5034b0&amp;dn=Popstar+Never+Stop+Never+Stopping+2016+1080p+WEB-DL+DD5.1+x265&amp;tr=udp%3A%2F%2Ftracker.leechers-paradise.org%3A6969&amp;tr=udp%3A%2F%2Fzer0day.ch%3A1337&amp;tr=udp%3A%2F%2Fopen.demonii.com%3A1337&amp;tr=udp%3A%2F%2Ftracker.coppersurfer.tk%3A6969&amp;tr=udp%3A%2F%2Fexodus.desync.com%3A6969","seeders":4,"leechers":4,"uploader":"nayhtut","files":1,"time":1472010321,"description":"[Screenshots]\r\n \nhttps://s3.postimg.org/lpzf91i3n/Popstar_Never_Stop_Never_Stopping_2016_1080p_WEB.jpg \nhttps://s3.postimg.org/4dz2nlomb/Popstar_Never_Stop_Never_Stopping_2016_1080p_WEB.jpg \nhttps://s3.postimg.org/dzsn3wfs3/Popstar_Never_Stop_Never_Stopping_2016_1080p_WEB.jpg\r\n\r\n\r\nSource: Popstar Never Stop Never Stopping 2016 1080p WEB-DL H264 AC3-EVO (3 GB)\r\n\r\n__--__--__--__--__--__--__--__--__--__--__--__--__--\r\n\r\n\r\nComplete name                            : Popstar.Never.Stop.Never.Stopping.2016.1080p.WEB-DL.HEVC.DD5.1.x265.mkv\r\nFormat                                   : Matroska\r\nFormat version                           : Version 4 / Version 2\r\nFile size                                : 1.01 GiB\r\nDuration                                 : 1h 26mn\r\nOverall bit rate                         : 1 670 Kbps\r\nWriting application                      : Lavf57.25.100\r\nWriting library                          : Lavf57.25.100\r\n\r\nVideo\r\n\r\nID                                       : 1\r\nFormat                                   : V_MPEGH/ISO/HEVC\r\nCodec ID                                 : V_MPEGH/ISO/HEVC\r\nDuration                                 : 1h 26mn\r\nBit rate                                 : 1 252 Kbps\r\nWidth                                    : 1 916 pixels\r\nHeight                                   : 796 pixels\r\nDisplay aspect ratio                     : 2.40:1\r\nFrame rate                               : 25.000 fps\r\nBits/(Pixel*Frame)                       : 0.033\r\nStream size                              : 775 MiB (75%)\r\nWriting library                          : Lavc57.48.101 libx265\r\nLanguage                                 : English\r\nDefault                                  : Yes\r\nForced                                   : No\r\nDURATION                                 : 01:26:30.531000000\r\n\r\nAudio\r\n\r\nID                                       : 2\r\nFormat                                   : AC-3\r\nFormat/Info                              : Audio Coding 3\r\nMode extension                           : CM (complete main)\r\nFormat settings, Endianness              : Big\r\nCodec ID                                 : A_AC3\r\nDuration                                 : 1h 26mn\r\nBit rate mode                            : Constant\r\nBit rate                                 : 384 Kbps\r\nChannel(s)                               : 6 channels\r\nChannel positions                        : Front: L C R, Side: L R, LFE\r\nSampling rate                            : 48.0 KHz\r\nBit depth                                : 16 bits\r\nCompression mode                         : Lossy\r\nStream size                              : 238 MiB (23%)\r\nWriting library                          : Lavc57.24.102 ac3\r\nLanguage                                 : English\r\nDefault                                  : Yes\r\nForced                                   : No\r\nDURATION                                 : 01:26:30.527000000\r\n\r\nMenu\r\n\r\n00:00:00.000                             : :1\r\n00:05:56.000                             : :2\r\n00:09:28.000                             : :3\r\n00:14:39.000                             : :4\r\n00:19:35.000                             : :5\r\n00:24:51.000                             : :6\r\n00:28:29.000                             : :7\r\n00:31:46.000                             : :8\r\n00:36:14.000                             : :9\r\n00:40:17.000                             : :10\r\n00:43:05.000                             : :11\r\n00:46:45.000                             : :12\r\n00:51:08.000                             : :13\r\n00:54:40.000                             : :14\r\n00:59:19.000                             : :15\r\n01:05:16.000                             : :16\r\n01:08:44.000                             : :17\r\n01:13:15.000                             : :18\r\n01:16:54.000                             : :19\r\n01:22:31.000                             : :20\r\n\r\n__--__--__--__--__--__--__--__--__--__--__--__--__--\r\n\r\n\r\nIMDb: http://www.imdb.com/title/tt3960412\r\n\r\n\r\n__--__--__--__--__--__--__--__--__--__--__--__--__--\r\n\r\n\r\nAfter adding torrent with magnet link,\r\n\r\nplease add this  following trackers list to the torrent for better seeds.\r\n\r\n\r\nudp://tracker.coppersurfer.tk:6969/announce\r\n\r\nudp://tracker.opentrackr.org:1337/announce\r\n \nhttp://tracker.baravik.org:6970/announce\r\n \nhttp://tracker2.wasabii.com.tw:6969/announce\r\n\r\nudp://9.rarbg.me:2710/announce\r\n\r\n\r\n__--__--__--__--__--__--__--__--__--__--__--__--__--\r\n\r\n\r\nEnjoy!","torrent":{"xt":"urn:btih:ac0eb2f1d75969c197a6748c664cf7600b5034b0","amp;dn":"Popstar+Never+Stop+Never+Stopping+2016+1080p+WEB-DL+DD5.1+x265","amp;tr":["udp%3A%2F%2Ftracker.leechers-paradise.org%3A6969","udp%3A%2F%2Fzer0day.ch%3A1337","udp%3A%2F%2Fopen.demonii.com%3A1337","udp%3A%2F%2Ftracker.coppersurfer.tk%3A6969","udp%3A%2F%2Fexodus.desync.com%3A6969"],"infoHash":"ac0eb2f1d75969c197a6748c664cf7600b5034b0","infoHashBuffer":{"type":"Buffer","data":[172,14,178,241,215,89,105,193,151,166,116,140,102,76,247,96,11,80,52,176]},"announce":[],"urlList":[]}}